<svg width="500" height="500" viewBox="0 0 500 500" fill="none" xmlns="http://www.w3.org/2000/svg">
<g clip-path="url(#clip0_6_2)">
<path d="M403.27 72C406.643 72 409.557 73.2266 412.01 75.68C414.463 78.1333 415.69 81.0467 415.69 84.42V381.58C415.69 384.953 414.463 387.867 412.01 390.32C409.557 392.773 406.643 394 403.27 394H308.51C305.137 394 302.223 392.773 299.77 390.32C297.317 387.867 296.09 384.953 296.09 381.58V283.6H204.09V381.58C204.09 384.953 202.863 387.867 200.41 390.32C197.957 392.773 195.043 394 191.67 394H96.9098C93.5365 394 90.6232 392.927 88.1698 390.78C85.7165 388.327 84.4898 385.26 84.4898 381.58V84.42C84.4898 81.0467 85.7165 78.1333 88.1698 75.68C90.6232 73.2266 93.5365 72 96.9098 72H191.67C195.043 72 197.957 73.2266 200.41 75.68C202.863 78.1333 204.09 81.0467 204.09 84.42V178.72H296.09V84.42C296.09 81.0467 297.317 78.1333 299.77 75.68C302.223 73.2266 305.137 72 308.51 72H403.27Z" fill="#291334"/>
</g>
<defs>
<clipPath id="clip0_6_2">
<rect width="500" height="500" rx="40" fill="white"/>
</clipPath>
</defs>
</svg>
