<svg width="2222" height="500" viewBox="0 0 2222 500" fill="none" xmlns="http://www.w3.org/2000/svg">
<g clip-path="url(#clip0_3_2)">
<path d="M252.732 142C254.786 142 256.559 142.747 258.052 144.24C259.546 145.733 260.292 147.507 260.292 149.56V330.44C260.292 332.493 259.546 334.267 258.052 335.76C256.559 337.253 254.786 338 252.732 338H195.052C192.999 338 191.226 337.253 189.732 335.76C188.239 334.267 187.492 332.493 187.492 330.44V270.8H131.492V330.44C131.492 332.493 130.746 334.267 129.252 335.76C127.759 337.253 125.986 338 123.932 338H66.2522C64.1989 338 62.4255 337.347 60.9322 336.04C59.4389 334.547 58.6922 332.68 58.6922 330.44V149.56C58.6922 147.507 59.4389 145.733 60.9322 144.24C62.4255 142.747 64.1989 142 66.2522 142H123.932C125.986 142 127.759 142.747 129.252 144.24C130.746 145.733 131.492 147.507 131.492 149.56V206.96H187.492V149.56C187.492 147.507 188.239 145.733 189.732 144.24C191.226 142.747 192.999 142 195.052 142H252.732ZM501.543 257.08C501.543 285.64 492.023 306.733 472.983 320.36C454.129 333.987 428.929 340.8 397.383 340.8C365.836 340.8 340.543 333.987 321.503 320.36C302.649 306.733 293.223 285.453 293.223 256.52V223.48C293.223 204.44 297.703 188.667 306.663 176.16C315.809 163.467 328.223 154.133 343.903 148.16C359.583 142.187 377.409 139.2 397.383 139.2C417.356 139.2 435.089 142.187 450.583 148.16C466.263 154.133 478.676 163.373 487.823 175.88C496.969 188.387 501.543 204.067 501.543 222.92V257.08ZM368.823 262.4C368.823 270.053 371.343 275.933 376.383 280.04C381.609 284.147 388.609 286.2 397.383 286.2C406.156 286.2 413.063 284.147 418.103 280.04C423.329 275.747 425.943 269.773 425.943 262.12V217.88C425.943 210.227 423.329 204.347 418.103 200.24C413.063 195.947 406.156 193.8 397.383 193.8C388.609 193.8 381.609 195.853 376.383 199.96C371.343 204.067 368.823 209.947 368.823 217.6V262.4ZM726.553 280.6C728.607 280.6 730.38 281.347 731.873 282.84C733.367 284.333 734.113 286.107 734.113 288.16V330.44C734.113 332.493 733.367 334.267 731.873 335.76C730.38 337.253 728.607 338 726.553 338H563.033C560.98 338 559.207 337.253 557.713 335.76C556.22 334.267 555.473 332.493 555.473 330.44V149.56C555.473 147.507 556.22 145.733 557.713 144.24C559.207 142.747 560.98 142 563.033 142H623.513C625.567 142 627.34 142.747 628.833 144.24C630.327 145.733 631.073 147.507 631.073 149.56V280.6H726.553ZM964.444 280.6C966.497 280.6 968.271 281.347 969.764 282.84C971.257 284.333 972.004 286.107 972.004 288.16V330.44C972.004 332.493 971.257 334.267 969.764 335.76C968.271 337.253 966.497 338 964.444 338H800.924C798.871 338 797.097 337.253 795.604 335.76C794.111 334.267 793.364 332.493 793.364 330.44V149.56C793.364 147.507 794.111 145.733 795.604 144.24C797.097 142.747 798.871 142 800.924 142H861.404C863.457 142 865.231 142.747 866.724 144.24C868.217 145.733 868.964 147.507 868.964 149.56V280.6H964.444ZM1213.53 142C1215.21 142 1216.61 142.653 1217.73 143.96C1219.04 145.08 1219.69 146.387 1219.69 147.88C1219.69 149 1219.41 150.12 1218.85 151.24L1148.29 268V330.44C1148.29 332.493 1147.55 334.267 1146.05 335.76C1144.56 337.253 1142.79 338 1140.73 338H1081.09C1079.04 338 1077.27 337.253 1075.77 335.76C1074.28 334.267 1073.53 332.493 1073.53 330.44V268L1003.25 151.24C1002.69 150.12 1002.41 149.093 1002.41 148.16C1002.41 146.48 1002.97 145.08 1004.09 143.96C1005.4 142.653 1006.89 142 1008.57 142H1067.65C1072.88 142 1076.71 144.147 1079.13 148.44L1110.77 203.88L1143.25 149C1146.05 144.333 1149.97 142 1155.01 142H1213.53ZM1677.56 283.4C1679.61 283.4 1681.38 284.147 1682.88 285.64C1684.37 287.133 1685.12 288.907 1685.12 290.96V330.44C1685.12 332.493 1684.37 334.267 1682.88 335.76C1681.38 337.253 1679.61 338 1677.56 338H1500.6C1498.54 338 1496.77 337.253 1495.28 335.76C1493.78 334.267 1493.04 332.493 1493.04 330.44V149.56C1493.04 147.507 1493.78 145.733 1495.28 144.24C1496.77 142.747 1498.54 142 1500.6 142H1674.76C1676.81 142 1678.58 142.747 1680.08 144.24C1681.57 145.733 1682.32 147.507 1682.32 149.56V189.04C1682.32 191.093 1681.57 192.867 1680.08 194.36C1678.58 195.853 1676.81 196.6 1674.76 196.6H1565.84V214.24H1659.36C1661.41 214.24 1663.18 214.987 1664.68 216.48C1666.17 217.973 1666.92 219.747 1666.92 221.8V258.2C1666.92 260.253 1666.17 262.027 1664.68 263.52C1663.18 265.013 1661.41 265.76 1659.36 265.76H1565.84V283.4H1677.56ZM1928.61 142C1930.29 142 1931.69 142.653 1932.81 143.96C1934.11 145.08 1934.77 146.48 1934.77 148.16L1934.49 150.12L1870.09 328.76C1869.15 331.373 1867.66 333.613 1865.61 335.48C1863.55 337.16 1860.85 338 1857.49 338H1792.25C1788.89 338 1786.18 337.16 1784.13 335.48C1782.07 333.613 1780.67 331.653 1779.93 329.6L1714.97 150.12L1714.69 148.16C1714.69 146.48 1715.25 145.08 1716.37 143.96C1717.67 142.653 1719.17 142 1720.85 142H1779.93C1783.29 142 1785.99 143.027 1788.05 145.08C1790.29 146.947 1791.78 149 1792.53 151.24L1824.73 258.48L1856.93 151.24C1857.67 148.813 1859.07 146.667 1861.13 144.8C1863.18 142.933 1865.98 142 1869.53 142H1928.61ZM2022.3 328.48C2019.87 334.827 2015.67 338 2009.7 338H1956.78C1955.1 338 1953.6 337.44 1952.3 336.32C1951.18 335.013 1950.62 333.52 1950.62 331.84L1950.9 330.16L2011.94 151.24C2012.68 148.813 2014.08 146.667 2016.14 144.8C2018.19 142.933 2020.99 142 2024.54 142H2102.38C2105.92 142 2108.72 142.933 2110.78 144.8C2112.83 146.667 2114.23 148.813 2114.98 151.24L2176.02 330.16L2176.3 331.84C2176.3 333.52 2175.64 335.013 2174.34 336.32C2173.22 337.44 2171.82 338 2170.14 338H2117.22C2111.24 338 2107.04 334.827 2104.62 328.48L2097.62 308.88H2029.3L2022.3 328.48ZM2063.46 196.04L2043.58 254.28H2083.34L2063.46 196.04Z" fill="#291334"/>
</g>
<defs>
<clipPath id="clip0_3_2">
<rect width="2222" height="500" rx="40" fill="white"/>
</clipPath>
</defs>
</svg>
