<svg width="1749" height="546" viewBox="0 0 1749 546" fill="none" xmlns="http://www.w3.org/2000/svg">
<g clip-path="url(#clip0_1_6)">
<path d="M492.013 2.99999C494.067 2.99999 495.84 3.74665 497.333 5.23999C498.827 6.73333 499.573 8.50666 499.573 10.56V191.44C499.573 193.493 498.827 195.267 497.333 196.76C495.84 198.253 494.067 199 492.013 199H434.333C432.28 199 430.507 198.253 429.013 196.76C427.52 195.267 426.773 193.493 426.773 191.44V131.8H370.773V191.44C370.773 193.493 370.027 195.267 368.533 196.76C367.04 198.253 365.267 199 363.213 199H305.533C303.48 199 301.707 198.347 300.213 197.04C298.72 195.547 297.973 193.68 297.973 191.44V10.56C297.973 8.50666 298.72 6.73333 300.213 5.23999C301.707 3.74665 303.48 2.99999 305.533 2.99999H363.213C365.267 2.99999 367.04 3.74665 368.533 5.23999C370.027 6.73333 370.773 8.50666 370.773 10.56V67.96H426.773V10.56C426.773 8.50666 427.52 6.73333 429.013 5.23999C430.507 3.74665 432.28 2.99999 434.333 2.99999H492.013ZM740.824 118.08C740.824 146.64 731.304 167.733 712.264 181.36C693.411 194.987 668.211 201.8 636.664 201.8C605.117 201.8 579.824 194.987 560.784 181.36C541.931 167.733 532.504 146.453 532.504 117.52V84.48C532.504 65.44 536.984 49.6667 545.944 37.16C555.091 24.4667 567.504 15.1333 583.184 9.15999C598.864 3.18666 616.691 0.199989 636.664 0.199989C656.637 0.199989 674.371 3.18666 689.864 9.15999C705.544 15.1333 717.957 24.3733 727.104 36.88C736.251 49.3867 740.824 65.0667 740.824 83.92V118.08ZM608.104 123.4C608.104 131.053 610.624 136.933 615.664 141.04C620.891 145.147 627.891 147.2 636.664 147.2C645.437 147.2 652.344 145.147 657.384 141.04C662.611 136.747 665.224 130.773 665.224 123.12V78.88C665.224 71.2267 662.611 65.3467 657.384 61.24C652.344 56.9467 645.437 54.8 636.664 54.8C627.891 54.8 620.891 56.8533 615.664 60.96C610.624 65.0667 608.104 70.9467 608.104 78.6V123.4ZM965.835 141.6C967.888 141.6 969.661 142.347 971.155 143.84C972.648 145.333 973.395 147.107 973.395 149.16V191.44C973.395 193.493 972.648 195.267 971.155 196.76C969.661 198.253 967.888 199 965.835 199H802.315C800.261 199 798.488 198.253 796.995 196.76C795.501 195.267 794.755 193.493 794.755 191.44V10.56C794.755 8.50666 795.501 6.73333 796.995 5.23999C798.488 3.74665 800.261 2.99999 802.315 2.99999H862.795C864.848 2.99999 866.621 3.74665 868.115 5.23999C869.608 6.73333 870.355 8.50666 870.355 10.56V141.6H965.835ZM1203.73 141.6C1205.78 141.6 1207.55 142.347 1209.05 143.84C1210.54 145.333 1211.29 147.107 1211.29 149.16V191.44C1211.29 193.493 1210.54 195.267 1209.05 196.76C1207.55 198.253 1205.78 199 1203.73 199H1040.21C1038.15 199 1036.38 198.253 1034.89 196.76C1033.39 195.267 1032.65 193.493 1032.65 191.44V10.56C1032.65 8.50666 1033.39 6.73333 1034.89 5.23999C1036.38 3.74665 1038.15 2.99999 1040.21 2.99999H1100.69C1102.74 2.99999 1104.51 3.74665 1106.01 5.23999C1107.5 6.73333 1108.25 8.50666 1108.25 10.56V141.6H1203.73ZM1452.82 2.99999C1454.5 2.99999 1455.9 3.65332 1457.02 4.95999C1458.32 6.07999 1458.98 7.38666 1458.98 8.87999C1458.98 9.99999 1458.7 11.12 1458.14 12.24L1387.58 129V191.44C1387.58 193.493 1386.83 195.267 1385.34 196.76C1383.84 198.253 1382.07 199 1380.02 199H1320.38C1318.32 199 1316.55 198.253 1315.06 196.76C1313.56 195.267 1312.82 193.493 1312.82 191.44V129L1242.54 12.24C1241.98 11.12 1241.7 10.0933 1241.7 9.15999C1241.7 7.47999 1242.26 6.07999 1243.38 4.95999C1244.68 3.65332 1246.18 2.99999 1247.86 2.99999H1306.94C1312.16 2.99999 1315.99 5.14665 1318.42 9.43999L1350.06 64.88L1382.54 10C1385.34 5.33332 1389.26 2.99999 1394.3 2.99999H1452.82ZM727.384 491.4C729.437 491.4 731.211 492.147 732.704 493.64C734.197 495.133 734.944 496.907 734.944 498.96V538.44C734.944 540.493 734.197 542.267 732.704 543.76C731.211 545.253 729.437 546 727.384 546H550.424C548.371 546 546.597 545.253 545.104 543.76C543.611 542.267 542.864 540.493 542.864 538.44V357.56C542.864 355.507 543.611 353.733 545.104 352.24C546.597 350.747 548.371 350 550.424 350H724.584C726.637 350 728.411 350.747 729.904 352.24C731.397 353.733 732.144 355.507 732.144 357.56V397.04C732.144 399.093 731.397 400.867 729.904 402.36C728.411 403.853 726.637 404.6 724.584 404.6H615.664V422.24H709.184C711.237 422.24 713.011 422.987 714.504 424.48C715.997 425.973 716.744 427.747 716.744 429.8V466.2C716.744 468.253 715.997 470.027 714.504 471.52C713.011 473.013 711.237 473.76 709.184 473.76H615.664V491.4H727.384ZM978.435 350C980.115 350 981.515 350.653 982.635 351.96C983.941 353.08 984.595 354.48 984.595 356.16L984.315 358.12L919.915 536.76C918.981 539.373 917.488 541.613 915.435 543.48C913.381 545.16 910.675 546 907.315 546H842.075C838.715 546 836.008 545.16 833.955 543.48C831.901 541.613 830.501 539.653 829.755 537.6L764.795 358.12L764.515 356.16C764.515 354.48 765.075 353.08 766.195 351.96C767.501 350.653 768.995 350 770.675 350H829.755C833.115 350 835.821 351.027 837.875 353.08C840.115 354.947 841.608 357 842.355 359.24L874.555 466.48L906.755 359.24C907.501 356.813 908.901 354.667 910.955 352.8C913.008 350.933 915.808 350 919.355 350H978.435ZM1072.13 536.48C1069.7 542.827 1065.5 546 1059.53 546H1006.61C1004.93 546 1003.43 545.44 1002.13 544.32C1001.01 543.013 1000.45 541.52 1000.45 539.84L1000.73 538.16L1061.77 359.24C1062.51 356.813 1063.91 354.667 1065.97 352.8C1068.02 350.933 1070.82 350 1074.37 350H1152.21C1155.75 350 1158.55 350.933 1160.61 352.8C1162.66 354.667 1164.06 356.813 1164.81 359.24L1225.85 538.16L1226.13 539.84C1226.13 541.52 1225.47 543.013 1224.17 544.32C1223.05 545.44 1221.65 546 1219.97 546H1167.05C1161.07 546 1156.87 542.827 1154.45 536.48L1147.45 516.88H1079.13L1072.13 536.48ZM1113.29 404.04L1093.41 462.28H1133.17L1113.29 404.04Z" fill="#291334"/>
</g>
<defs>
<clipPath id="clip0_1_6">
<rect width="1749" height="546" rx="40" fill="white"/>
</clipPath>
</defs>
</svg>
